<svg class="icon" viewBox="0 0 1024 1024" xmlns="http://www.w3.org/2000/svg" width="200" height="200"><defs><style/></defs><path d="M292.232 105.08h-162.79c-13.49 0-24.42 10.93-24.42 24.42V292.173c0 13.547 10.93 24.477 24.42 24.477s24.534-10.93 24.534-24.477c0-1.395-.233-2.849-.465-4.186V157.87c0-2.267 1.802-4.07 4.012-4.07h132.093c.872.059 1.744.233 2.616.233 13.489 0 24.477-10.93 24.477-24.477s-10.988-24.476-24.477-24.476z"/><path d="M816.826 801.594c0 8.953-7.384 16.22-16.279 16.22H219.965c-8.954 0-16.221-7.267-16.221-16.22V221.069c0-9.011 7.267-16.279 16.22-16.279h580.583c8.895 0 16.28 7.268 16.28 16.28v580.524z"/><path d="M731.652 105.08h162.79c13.489 0 24.42 10.93 24.42 24.42v162.325c0 .116.116.233.116.349 0 13.547-10.989 24.477-24.535 24.477s-24.477-10.93-24.477-24.477c0-1.395.232-2.849.407-4.186V157.87c0-2.267-1.744-4.07-4.07-4.07H734.268c-.93.059-1.686.233-2.616.233-13.489 0-24.42-10.93-24.42-24.477s10.931-24.476 24.42-24.476zM292.232 918.92h-162.79c-13.49 0-24.42-10.873-24.42-24.361V732.175v-.349c0-13.547 10.93-24.535 24.42-24.535s24.534 10.93 24.534 24.535c0 1.395-.233 2.849-.465 4.186V866.07c0 2.268 1.802 4.07 4.012 4.07h132.093c.872-.058 1.686-.232 2.558-.232 13.488 0 24.477 10.93 24.477 24.476s-10.93 24.535-24.419 24.535zM731.652 918.92h162.79c13.489 0 24.42-10.93 24.42-24.361V732.175c0-.116.116-.233.116-.349 0-13.547-10.989-24.535-24.535-24.535s-24.477 10.93-24.477 24.535c0 1.395.232 2.849.407 4.186V866.07c0 2.268-1.744 4.07-4.07 4.07H734.268c-.93-.058-1.686-.232-2.616-.232-13.489 0-24.42 10.93-24.42 24.476s10.931 24.535 24.42 24.535z"/></svg>